<?xml version="1.0" standalone="no"?>
<!DOCTYPE svg PUBLIC "-//W3C//DTD SVG 20010904//EN"
 "http://www.w3.org/TR/2001/REC-SVG-20010904/DTD/svg10.dtd">
<svg version="1.0" xmlns="http://www.w3.org/2000/svg"
 width="650.000000pt" height="650.000000pt" viewBox="0 0 650.000000 650.000000"
 preserveAspectRatio="xMidYMid meet">
<metadata>
Created by potrace 1.15, written by Peter Selinger 2001-2017
</metadata>
<g transform="translate(0.000000,650.000000) scale(0.100000,-0.100000)"
fill="#000000" stroke="none">
<path d="M4805 3878 c-52 -19 -91 -89 -81 -144 7 -34 59 -108 70 -97 3 3 6 1
6 -6 0 -7 5 -9 10 -6 6 3 10 3 10 -2 0 -4 23 -8 50 -8 28 0 50 4 50 9 0 5 3 7
6 3 8 -8 64 43 80 75 21 40 17 73 -12 119 -39 62 -113 84 -189 57z"/>
<path d="M688 3855 c-2 -3 -22 -7 -44 -10 -60 -8 -197 -55 -214 -75 -3 -3 -18
-14 -34 -24 -95 -61 -192 -193 -222 -306 -10 -36 -21 -67 -24 -70 -11 -8 -8
-300 3 -300 5 0 7 -9 4 -20 -3 -11 -2 -20 2 -20 4 0 12 -19 18 -42 32 -119
139 -243 265 -306 108 -54 202 -74 322 -68 113 5 157 12 224 33 50 15 80 42
64 58 -4 3 -7 10 -8 13 -1 12 -17 67 -21 74 -2 4 -19 0 -39 -8 -19 -8 -39 -12
-44 -9 -6 4 -10 1 -10 -5 0 -6 -10 -8 -25 -4 -14 3 -25 2 -25 -3 0 -7 -203
-10 -220 -3 -3 1 -13 2 -22 1 -10 -1 -18 3 -18 9 0 6 -4 9 -9 5 -16 -9 -116
42 -164 86 -48 43 -122 171 -113 196 3 7 0 13 -5 13 -6 0 -9 9 -6 20 3 11 2
20 -3 20 -7 0 -11 36 -11 120 0 91 2 120 11 120 4 0 6 9 3 20 -3 11 0 20 6 20
5 0 8 6 5 14 -11 28 53 141 111 195 58 55 151 104 197 104 15 0 28 3 28 7 0 8
204 5 218 -4 7 -4 16 -5 21 -1 6 3 32 -3 60 -14 l51 -19 10 37 c6 20 14 51 16
68 5 29 2 34 -23 44 -70 27 -316 52 -335 34z"/>
<path d="M3785 3840 c-44 -5 -90 -12 -102 -15 l-23 -5 0 -589 0 -588 38 -7
c20 -3 100 -9 177 -12 161 -8 314 7 414 39 36 11 69 20 74 19 4 -1 7 3 7 10 0
6 3 9 6 5 18 -17 138 111 158 169 10 27 22 57 27 66 11 22 12 93 0 116 -4 9
-20 42 -34 73 -28 62 -85 116 -156 148 l-43 19 38 18 c130 62 189 214 130 339
-38 83 -118 143 -236 180 -65 20 -348 29 -475 15z m340 -202 c11 -1 26 -8 33
-15 8 -7 17 -11 22 -8 4 3 20 -9 34 -26 44 -52 32 -149 -23 -184 -30 -19 -95
-34 -173 -41 l-79 -7 3 139 c4 167 -8 158 183 142z m-7 -480 c12 0 22 -4 22
-9 0 -4 6 -6 13 -4 19 8 75 -31 97 -67 24 -40 26 -116 5 -158 -17 -32 -70 -74
-84 -66 -5 4 -11 1 -13 -6 -3 -8 -38 -12 -109 -12 l-104 -1 -3 162 -2 162 47
4 c27 2 62 2 78 0 17 -2 40 -4 53 -5z"/>
<path d="M1537 3520 c-9 -6 -26 -8 -37 -5 -12 4 -20 2 -20 -5 0 -7 -7 -10 -15
-6 -8 3 -15 1 -15 -4 0 -6 -11 -10 -25 -10 -14 0 -25 -4 -25 -9 0 -5 -14 -14
-31 -21 -35 -15 -103 -83 -137 -138 -40 -66 -62 -156 -62 -256 0 -193 73 -327
219 -405 70 -37 102 -44 191 -44 82 0 118 7 177 34 27 12 51 21 56 21 4 -1 7
3 7 8 0 6 4 10 9 10 35 0 161 182 161 231 0 10 4 20 9 23 5 3 7 15 4 25 -3 10
0 22 6 25 13 8 15 147 3 161 -5 6 -14 36 -21 67 -23 106 -139 245 -221 263
-16 4 -30 11 -30 15 0 5 -7 7 -15 4 -8 -4 -15 -2 -15 3 0 6 -12 11 -27 11 -16
1 -50 4 -78 7 -28 3 -58 1 -68 -5z m135 -135 c25 -9 60 -30 77 -47 39 -38 82
-120 87 -163 1 -16 4 -30 4 -30 1 0 3 -35 5 -77 1 -43 -1 -78 -6 -78 -5 0 -6
-7 -3 -15 8 -20 -37 -114 -76 -158 -29 -33 -88 -70 -115 -72 -5 -1 -23 -5 -39
-9 -19 -6 -36 -5 -47 2 -10 7 -24 9 -31 7 -41 -16 -175 122 -182 187 -1 13 -5
28 -7 33 -24 45 -10 213 22 278 44 87 76 116 169 150 29 11 97 7 142 -8z"/>
<path d="M2561 3521 c-8 -5 -20 -7 -28 -4 -7 3 -13 0 -13 -7 0 -6 -4 -8 -10
-5 -5 3 -10 1 -10 -5 0 -6 -4 -8 -10 -5 -5 3 -10 1 -10 -6 0 -7 -3 -10 -6 -6
-9 9 -85 -82 -101 -120 -15 -38 -28 -44 -19 -10 3 12 3 52 -1 90 l-6 67 -70 0
-70 0 6 -97 c4 -54 7 -252 7 -440 l0 -343 81 0 80 0 0 253 c-1 286 0 311 25
363 21 44 81 107 95 99 5 -4 9 -1 9 4 0 6 3 10 8 10 4 -1 12 0 17 1 6 1 33 3
60 4 l50 1 3 83 3 82 -38 0 c-21 0 -44 -4 -52 -9z"/>
<path d="M3057 3519 c-10 -6 -25 -8 -33 -5 -8 3 -14 1 -14 -5 0 -6 -7 -9 -15
-5 -8 3 -15 2 -15 -2 0 -4 -20 -15 -44 -25 -80 -33 -181 -162 -201 -257 -4
-19 -10 -39 -13 -44 -19 -32 -18 -194 1 -246 3 -8 11 -33 18 -55 7 -22 22 -56
34 -75 22 -35 94 -113 108 -117 4 -2 28 -14 55 -27 110 -56 280 -60 433 -10
36 11 48 21 52 40 2 13 1 27 -3 29 -4 3 -10 18 -14 36 -5 26 -9 29 -28 23 -13
-4 -31 -8 -40 -8 -10 0 -18 -4 -18 -9 0 -5 -9 -6 -19 -2 -11 3 -22 2 -24 -2
-4 -7 -191 -9 -207 -3 -3 1 -8 2 -12 1 -5 0 -8 4 -8 10 0 6 -6 9 -14 6 -15 -6
-77 34 -108 69 -25 28 -60 113 -54 129 3 8 1 17 -4 20 -6 4 -10 17 -10 30 l0
25 308 2 307 3 3 58 c6 108 -46 251 -115 321 -37 37 -110 82 -125 78 -5 -1 -8
1 -8 6 0 4 -12 8 -27 9 -16 2 -50 5 -78 8 -29 3 -58 1 -68 -6z m130 -130 c72
-22 118 -87 129 -183 l7 -56 -231 0 -230 0 9 41 c19 83 70 157 126 184 69 34
114 37 190 14z"/>
<path d="M4730 3070 l0 -440 140 0 140 0 0 440 0 440 -140 0 -140 0 0 -440z"/>
<path d="M5172 3398 l3 -113 188 -3 c103 -1 187 -6 187 -10 0 -5 -16 -24 -36
-43 -20 -18 -101 -115 -182 -214 -80 -99 -156 -190 -169 -202 -20 -19 -23 -32
-23 -103 l0 -80 385 0 385 0 0 115 0 116 -209 -3 -208 -3 67 75 c68 77 145
170 263 318 l67 85 0 89 0 88 -360 0 -361 0 3 -112z"/>
<path d="M6140 2929 c-42 -17 -68 -49 -85 -103 -16 -51 -16 -53 9 -109 23 -53
30 -60 82 -83 62 -27 57 -28 143 14 94 46 95 207 2 269 -37 25 -105 30 -151
12z"/>
</g>
</svg>
